G04 #@! TF.GenerationSoftware,KiCad,Pcbnew,(5.1.10)-1*
G04 #@! TF.CreationDate,2022-02-08T11:48:01+09:00*
G04 #@! TF.ProjectId,AnVCO,416e5643-4f2e-46b6-9963-61645f706362,Ver. 1.0*
G04 #@! TF.SameCoordinates,Original*
G04 #@! TF.FileFunction,Soldermask,Top*
G04 #@! TF.FilePolarity,Negative*
%FSLAX46Y46*%
G04 Gerber Fmt 4.6, Leading zero omitted, Abs format (unit mm)*
G04 Created by KiCad (PCBNEW (5.1.10)-1) date 2022-02-08 11:48:01*
%MOMM*%
%LPD*%
G01*
G04 APERTURE LIST*
%ADD10O,1.600000X1.600000*%
%ADD11C,1.600000*%
%ADD12R,1.600000X1.600000*%
%ADD13C,3.200000*%
%ADD14C,2.000000*%
%ADD15C,1.440000*%
%ADD16C,1.400000*%
%ADD17C,1.000000*%
%ADD18C,1.800000*%
%ADD19R,1.500000X1.500000*%
%ADD20C,1.500000*%
%ADD21O,1.700000X2.000000*%
%ADD22O,1.700000X1.950000*%
%ADD23O,1.950000X1.700000*%
%ADD24O,2.000000X1.700000*%
%ADD25O,1.700000X1.700000*%
%ADD26R,1.700000X1.700000*%
%ADD27C,1.700000*%
%ADD28R,1.800000X1.800000*%
G04 APERTURE END LIST*
D10*
G04 #@! TO.C,R36*
X151130000Y-124460000D03*
D11*
X140970000Y-124460000D03*
G04 #@! TD*
D10*
G04 #@! TO.C,U3*
X133350000Y-124300000D03*
X125730000Y-131920000D03*
X133350000Y-126840000D03*
X125730000Y-129380000D03*
X133350000Y-129380000D03*
X125730000Y-126840000D03*
X133350000Y-131920000D03*
D12*
X125730000Y-124300000D03*
G04 #@! TD*
D10*
G04 #@! TO.C,R24*
X140970000Y-95250000D03*
D11*
X130810000Y-95250000D03*
G04 #@! TD*
D13*
G04 #@! TO.C,H4*
X171450000Y-147320000D03*
G04 #@! TD*
G04 #@! TO.C,H3*
X171450000Y-53975000D03*
G04 #@! TD*
G04 #@! TO.C,H2*
X88265000Y-147320000D03*
G04 #@! TD*
G04 #@! TO.C,H1*
X88265000Y-53975000D03*
G04 #@! TD*
D14*
G04 #@! TO.C,TP3*
X101600000Y-101600000D03*
G04 #@! TD*
D15*
G04 #@! TO.C,RV8*
X119380000Y-119380000D03*
X121920000Y-119380000D03*
X124460000Y-119380000D03*
G04 #@! TD*
G04 #@! TO.C,RV1*
X149860000Y-86360000D03*
X147320000Y-86360000D03*
X144780000Y-86360000D03*
G04 #@! TD*
D10*
G04 #@! TO.C,R5*
X93980000Y-139700000D03*
D11*
X91440000Y-139700000D03*
G04 #@! TD*
D10*
G04 #@! TO.C,R4*
X92710000Y-71120000D03*
D11*
X90170000Y-71120000D03*
G04 #@! TD*
D10*
G04 #@! TO.C,R3*
X92710000Y-101600000D03*
D11*
X90170000Y-101600000D03*
G04 #@! TD*
D10*
G04 #@! TO.C,U5*
X162560000Y-135890000D03*
X154940000Y-143510000D03*
X162560000Y-138430000D03*
X154940000Y-140970000D03*
X162560000Y-140970000D03*
X154940000Y-138430000D03*
X162560000Y-143510000D03*
D12*
X154940000Y-135890000D03*
G04 #@! TD*
D16*
G04 #@! TO.C,JP2*
X114300000Y-66040000D03*
X114300000Y-68580000D03*
G04 #@! TD*
D10*
G04 #@! TO.C,R43*
X166370000Y-124460000D03*
D11*
X176530000Y-124460000D03*
G04 #@! TD*
D10*
G04 #@! TO.C,U4*
X162560000Y-116840000D03*
X154940000Y-124460000D03*
X162560000Y-119380000D03*
X154940000Y-121920000D03*
X162560000Y-121920000D03*
X154940000Y-119380000D03*
X162560000Y-124460000D03*
D12*
X154940000Y-116840000D03*
G04 #@! TD*
D10*
G04 #@! TO.C,U2*
X114300000Y-91440000D03*
X106680000Y-99060000D03*
X114300000Y-93980000D03*
X106680000Y-96520000D03*
X114300000Y-96520000D03*
X106680000Y-93980000D03*
X114300000Y-99060000D03*
D12*
X106680000Y-91440000D03*
G04 #@! TD*
D10*
G04 #@! TO.C,U1*
X130810000Y-78740000D03*
X123190000Y-86360000D03*
X130810000Y-81280000D03*
X123190000Y-83820000D03*
X130810000Y-83820000D03*
X123190000Y-81280000D03*
X130810000Y-86360000D03*
D12*
X123190000Y-78740000D03*
G04 #@! TD*
D17*
G04 #@! TO.C,TP2*
X129540000Y-54610000D03*
G04 #@! TD*
G04 #@! TO.C,TP1*
X135890000Y-78740000D03*
G04 #@! TD*
D18*
G04 #@! TO.C,RV10*
X180340000Y-124460000D03*
X180340000Y-121960000D03*
X180340000Y-119460000D03*
G04 #@! TD*
G04 #@! TO.C,RV9*
X180340000Y-146050000D03*
X180340000Y-143550000D03*
X180340000Y-141050000D03*
G04 #@! TD*
D15*
G04 #@! TO.C,RV7*
X90170000Y-78740000D03*
X90170000Y-81280000D03*
X90170000Y-83820000D03*
G04 #@! TD*
D18*
G04 #@! TO.C,RV6*
X180340000Y-102870000D03*
X180340000Y-100370000D03*
X180340000Y-97870000D03*
G04 #@! TD*
G04 #@! TO.C,RV5*
X180340000Y-81280000D03*
X180340000Y-78780000D03*
X180340000Y-76280000D03*
G04 #@! TD*
G04 #@! TO.C,RV4*
X139700000Y-57150000D03*
X142240000Y-62230000D03*
X139700000Y-69850000D03*
G04 #@! TD*
G04 #@! TO.C,RV3*
X149860000Y-57150000D03*
X152400000Y-62230000D03*
X149860000Y-69850000D03*
G04 #@! TD*
G04 #@! TO.C,RV2*
X180340000Y-59690000D03*
X180340000Y-57190000D03*
X180340000Y-54690000D03*
G04 #@! TD*
D10*
G04 #@! TO.C,R42*
X176530000Y-138430000D03*
D11*
X166370000Y-138430000D03*
G04 #@! TD*
D10*
G04 #@! TO.C,R41*
X140970000Y-139700000D03*
D11*
X151130000Y-139700000D03*
G04 #@! TD*
D10*
G04 #@! TO.C,R40*
X176530000Y-119380000D03*
D11*
X166370000Y-119380000D03*
G04 #@! TD*
D10*
G04 #@! TO.C,R39*
X176530000Y-142240000D03*
D11*
X166370000Y-142240000D03*
G04 #@! TD*
D10*
G04 #@! TO.C,R38*
X151130000Y-135890000D03*
D11*
X140970000Y-135890000D03*
G04 #@! TD*
D10*
G04 #@! TO.C,R37*
X151130000Y-132080000D03*
D11*
X140970000Y-132080000D03*
G04 #@! TD*
D10*
G04 #@! TO.C,R35*
X113030000Y-135890000D03*
D11*
X123190000Y-135890000D03*
G04 #@! TD*
D10*
G04 #@! TO.C,R34*
X114300000Y-130810000D03*
D11*
X114300000Y-120650000D03*
G04 #@! TD*
D10*
G04 #@! TO.C,R33*
X140970000Y-128270000D03*
D11*
X151130000Y-128270000D03*
G04 #@! TD*
D10*
G04 #@! TO.C,R32*
X118110000Y-97790000D03*
D11*
X128270000Y-97790000D03*
G04 #@! TD*
D10*
G04 #@! TO.C,R31*
X105410000Y-81280000D03*
D11*
X115570000Y-81280000D03*
G04 #@! TD*
D10*
G04 #@! TO.C,R30*
X88900000Y-92710000D03*
D11*
X99060000Y-92710000D03*
G04 #@! TD*
D10*
G04 #@! TO.C,R29*
X128270000Y-101600000D03*
D11*
X118110000Y-101600000D03*
G04 #@! TD*
D10*
G04 #@! TO.C,R28*
X118110000Y-93980000D03*
D11*
X128270000Y-93980000D03*
G04 #@! TD*
D10*
G04 #@! TO.C,R27*
X140970000Y-99060000D03*
D11*
X130810000Y-99060000D03*
G04 #@! TD*
D10*
G04 #@! TO.C,R26*
X88900000Y-88900000D03*
D11*
X99060000Y-88900000D03*
G04 #@! TD*
D10*
G04 #@! TO.C,R25*
X105410000Y-77470000D03*
D11*
X115570000Y-77470000D03*
G04 #@! TD*
D10*
G04 #@! TO.C,R23*
X88900000Y-96520000D03*
D11*
X99060000Y-96520000D03*
G04 #@! TD*
D10*
G04 #@! TO.C,R22*
X176530000Y-100330000D03*
D11*
X166370000Y-100330000D03*
G04 #@! TD*
D10*
G04 #@! TO.C,R21*
X119380000Y-76200000D03*
D11*
X119380000Y-66040000D03*
G04 #@! TD*
D10*
G04 #@! TO.C,R20*
X133350000Y-67945000D03*
D11*
X133350000Y-57785000D03*
G04 #@! TD*
D10*
G04 #@! TO.C,R19*
X176530000Y-85090000D03*
D11*
X166370000Y-85090000D03*
G04 #@! TD*
D10*
G04 #@! TO.C,R18*
X124460000Y-55880000D03*
D11*
X124460000Y-66040000D03*
G04 #@! TD*
D10*
G04 #@! TO.C,R17*
X133350000Y-71120000D03*
D11*
X123190000Y-71120000D03*
G04 #@! TD*
D10*
G04 #@! TO.C,R16*
X153670000Y-106680000D03*
D11*
X143510000Y-106680000D03*
G04 #@! TD*
D10*
G04 #@! TO.C,R15*
X166370000Y-96520000D03*
D11*
X176530000Y-96520000D03*
G04 #@! TD*
D10*
G04 #@! TO.C,R14*
X153670000Y-102870000D03*
D11*
X143510000Y-102870000D03*
G04 #@! TD*
D10*
G04 #@! TO.C,R13*
X153670000Y-99060000D03*
D11*
X143510000Y-99060000D03*
G04 #@! TD*
D10*
G04 #@! TO.C,R12*
X153670000Y-95250000D03*
D11*
X143510000Y-95250000D03*
G04 #@! TD*
D10*
G04 #@! TO.C,R11*
X166370000Y-67310000D03*
D11*
X176530000Y-67310000D03*
G04 #@! TD*
D10*
G04 #@! TO.C,R10*
X146050000Y-72390000D03*
D11*
X146050000Y-62230000D03*
G04 #@! TD*
D10*
G04 #@! TO.C,R9*
X176530000Y-63500000D03*
D11*
X166370000Y-63500000D03*
G04 #@! TD*
D10*
G04 #@! TO.C,R8*
X176530000Y-59690000D03*
D11*
X166370000Y-59690000D03*
G04 #@! TD*
D10*
G04 #@! TO.C,R7*
X153670000Y-91440000D03*
D11*
X143510000Y-91440000D03*
G04 #@! TD*
D10*
G04 #@! TO.C,R6*
X151130000Y-76200000D03*
D11*
X140970000Y-76200000D03*
G04 #@! TD*
D10*
G04 #@! TO.C,R2*
X105410000Y-124460000D03*
D11*
X105410000Y-134620000D03*
G04 #@! TD*
D10*
G04 #@! TO.C,R1*
X109220000Y-124460000D03*
D11*
X109220000Y-134620000D03*
G04 #@! TD*
D19*
G04 #@! TO.C,Q4*
X120650000Y-132080000D03*
D20*
X120650000Y-127000000D03*
X120650000Y-129540000D03*
G04 #@! TD*
D19*
G04 #@! TO.C,Q3*
X95250000Y-78740000D03*
D20*
X95250000Y-83820000D03*
X97790000Y-81280000D03*
G04 #@! TD*
D19*
G04 #@! TO.C,Q2*
X121920000Y-63500000D03*
D20*
X121920000Y-58420000D03*
X119380000Y-60960000D03*
G04 #@! TD*
D19*
G04 #@! TO.C,Q1*
X127000000Y-58420000D03*
D20*
X127000000Y-63500000D03*
X129540000Y-60960000D03*
G04 #@! TD*
D16*
G04 #@! TO.C,JP1*
X86360000Y-111760000D03*
X86360000Y-114300000D03*
G04 #@! TD*
D21*
G04 #@! TO.C,J11*
X141010000Y-146050000D03*
G36*
G01*
X144360000Y-145300000D02*
X144360000Y-146800000D01*
G75*
G02*
X144110000Y-147050000I-250000J0D01*
G01*
X142910000Y-147050000D01*
G75*
G02*
X142660000Y-146800000I0J250000D01*
G01*
X142660000Y-145300000D01*
G75*
G02*
X142910000Y-145050000I250000J0D01*
G01*
X144110000Y-145050000D01*
G75*
G02*
X144360000Y-145300000I0J-250000D01*
G01*
G37*
G04 #@! TD*
D22*
G04 #@! TO.C,J10*
X114180000Y-54610000D03*
X111680000Y-54610000D03*
X109180000Y-54610000D03*
G36*
G01*
X105830000Y-55335000D02*
X105830000Y-53885000D01*
G75*
G02*
X106080000Y-53635000I250000J0D01*
G01*
X107280000Y-53635000D01*
G75*
G02*
X107530000Y-53885000I0J-250000D01*
G01*
X107530000Y-55335000D01*
G75*
G02*
X107280000Y-55585000I-250000J0D01*
G01*
X106080000Y-55585000D01*
G75*
G02*
X105830000Y-55335000I0J250000D01*
G01*
G37*
G04 #@! TD*
D23*
G04 #@! TO.C,J9*
X161290000Y-84970000D03*
X161290000Y-82470000D03*
X161290000Y-79970000D03*
G36*
G01*
X160565000Y-76620000D02*
X162015000Y-76620000D01*
G75*
G02*
X162265000Y-76870000I0J-250000D01*
G01*
X162265000Y-78070000D01*
G75*
G02*
X162015000Y-78320000I-250000J0D01*
G01*
X160565000Y-78320000D01*
G75*
G02*
X160315000Y-78070000I0J250000D01*
G01*
X160315000Y-76870000D01*
G75*
G02*
X160565000Y-76620000I250000J0D01*
G01*
G37*
G04 #@! TD*
G04 #@! TO.C,J8*
X161290000Y-106480000D03*
X161290000Y-103980000D03*
X161290000Y-101480000D03*
X161290000Y-98980000D03*
X161290000Y-96480000D03*
G36*
G01*
X160565000Y-93130000D02*
X162015000Y-93130000D01*
G75*
G02*
X162265000Y-93380000I0J-250000D01*
G01*
X162265000Y-94580000D01*
G75*
G02*
X162015000Y-94830000I-250000J0D01*
G01*
X160565000Y-94830000D01*
G75*
G02*
X160315000Y-94580000I0J250000D01*
G01*
X160315000Y-93380000D01*
G75*
G02*
X160565000Y-93130000I250000J0D01*
G01*
G37*
G04 #@! TD*
D24*
G04 #@! TO.C,J7*
X171450000Y-78700000D03*
G36*
G01*
X170700000Y-75350000D02*
X172200000Y-75350000D01*
G75*
G02*
X172450000Y-75600000I0J-250000D01*
G01*
X172450000Y-76800000D01*
G75*
G02*
X172200000Y-77050000I-250000J0D01*
G01*
X170700000Y-77050000D01*
G75*
G02*
X170450000Y-76800000I0J250000D01*
G01*
X170450000Y-75600000D01*
G75*
G02*
X170700000Y-75350000I250000J0D01*
G01*
G37*
G04 #@! TD*
D25*
G04 #@! TO.C,J6*
X95250000Y-147320000D03*
D26*
X95250000Y-144780000D03*
G04 #@! TD*
D25*
G04 #@! TO.C,J5*
X160020000Y-57150000D03*
D26*
X160020000Y-54610000D03*
G04 #@! TD*
D27*
G04 #@! TO.C,J4*
X92710000Y-111760000D03*
X92710000Y-114300000D03*
X92710000Y-116840000D03*
X92710000Y-119380000D03*
X92710000Y-121920000D03*
X92710000Y-124460000D03*
X92710000Y-127000000D03*
X92710000Y-129540000D03*
X95250000Y-111760000D03*
X95250000Y-114300000D03*
X95250000Y-116840000D03*
X95250000Y-119380000D03*
X95250000Y-121920000D03*
X95250000Y-124460000D03*
X95250000Y-127000000D03*
G36*
G01*
X96100000Y-128940000D02*
X96100000Y-130140000D01*
G75*
G02*
X95850000Y-130390000I-250000J0D01*
G01*
X94650000Y-130390000D01*
G75*
G02*
X94400000Y-130140000I0J250000D01*
G01*
X94400000Y-128940000D01*
G75*
G02*
X94650000Y-128690000I250000J0D01*
G01*
X95850000Y-128690000D01*
G75*
G02*
X96100000Y-128940000I0J-250000D01*
G01*
G37*
G04 #@! TD*
D22*
G04 #@! TO.C,J3*
X104260000Y-146050000D03*
X106760000Y-146050000D03*
X109260000Y-146050000D03*
G36*
G01*
X112610000Y-145325000D02*
X112610000Y-146775000D01*
G75*
G02*
X112360000Y-147025000I-250000J0D01*
G01*
X111160000Y-147025000D01*
G75*
G02*
X110910000Y-146775000I0J250000D01*
G01*
X110910000Y-145325000D01*
G75*
G02*
X111160000Y-145075000I250000J0D01*
G01*
X112360000Y-145075000D01*
G75*
G02*
X112610000Y-145325000I0J-250000D01*
G01*
G37*
G04 #@! TD*
G04 #@! TO.C,J2*
X120770000Y-146050000D03*
X123270000Y-146050000D03*
X125770000Y-146050000D03*
G36*
G01*
X129120000Y-145325000D02*
X129120000Y-146775000D01*
G75*
G02*
X128870000Y-147025000I-250000J0D01*
G01*
X127670000Y-147025000D01*
G75*
G02*
X127420000Y-146775000I0J250000D01*
G01*
X127420000Y-145325000D01*
G75*
G02*
X127670000Y-145075000I250000J0D01*
G01*
X128870000Y-145075000D01*
G75*
G02*
X129120000Y-145325000I0J-250000D01*
G01*
G37*
G04 #@! TD*
D24*
G04 #@! TO.C,J1*
X161290000Y-68540000D03*
G36*
G01*
X160540000Y-65190000D02*
X162040000Y-65190000D01*
G75*
G02*
X162290000Y-65440000I0J-250000D01*
G01*
X162290000Y-66640000D01*
G75*
G02*
X162040000Y-66890000I-250000J0D01*
G01*
X160540000Y-66890000D01*
G75*
G02*
X160290000Y-66640000I0J250000D01*
G01*
X160290000Y-65440000D01*
G75*
G02*
X160540000Y-65190000I250000J0D01*
G01*
G37*
G04 #@! TD*
D18*
G04 #@! TO.C,D3*
X99060000Y-139700000D03*
D28*
X96520000Y-139700000D03*
G04 #@! TD*
D18*
G04 #@! TO.C,D2*
X95250000Y-71120000D03*
D28*
X97790000Y-71120000D03*
G04 #@! TD*
D18*
G04 #@! TO.C,D1*
X95250000Y-101600000D03*
D28*
X97790000Y-101600000D03*
G04 #@! TD*
D11*
G04 #@! TO.C,C18*
X157440000Y-147320000D03*
X154940000Y-147320000D03*
G04 #@! TD*
G04 #@! TO.C,C17*
X162520000Y-132080000D03*
X160020000Y-132080000D03*
G04 #@! TD*
G04 #@! TO.C,C16*
X157480000Y-128270000D03*
X154980000Y-128270000D03*
G04 #@! TD*
G04 #@! TO.C,C15*
X162560000Y-113030000D03*
X160060000Y-113030000D03*
G04 #@! TD*
G04 #@! TO.C,C14*
X125770000Y-135890000D03*
X128270000Y-135890000D03*
G04 #@! TD*
G04 #@! TO.C,C13*
X137160000Y-129460000D03*
X137160000Y-124460000D03*
G04 #@! TD*
G04 #@! TO.C,C12*
X133310000Y-120650000D03*
X130810000Y-120650000D03*
G04 #@! TD*
G04 #@! TO.C,C11*
X106720000Y-102870000D03*
X109220000Y-102870000D03*
G04 #@! TD*
G04 #@! TO.C,C10*
X107870000Y-86360000D03*
X102870000Y-86360000D03*
G04 #@! TD*
G04 #@! TO.C,C9*
X114300000Y-87630000D03*
X111800000Y-87630000D03*
G04 #@! TD*
G04 #@! TO.C,C8*
X101600000Y-76280000D03*
X101600000Y-81280000D03*
G04 #@! TD*
G04 #@! TO.C,C7*
X102870000Y-91520000D03*
X102870000Y-96520000D03*
G04 #@! TD*
G04 #@! TO.C,C6*
X119380000Y-83740000D03*
X119380000Y-78740000D03*
G04 #@! TD*
G04 #@! TO.C,C5*
X123230000Y-90170000D03*
X125730000Y-90170000D03*
G04 #@! TD*
G04 #@! TO.C,C4*
X130770000Y-74930000D03*
X128270000Y-74930000D03*
G04 #@! TD*
G04 #@! TO.C,C3*
X106640000Y-119380000D03*
D12*
X104140000Y-119380000D03*
G04 #@! TD*
D11*
G04 #@! TO.C,C2*
X95210000Y-63500000D03*
D12*
X92710000Y-63500000D03*
G04 #@! TD*
D11*
G04 #@! TO.C,C1*
X106640000Y-110490000D03*
D12*
X104140000Y-110490000D03*
G04 #@! TD*
M02*
